<svg width="30" height="77" viewBox="0 0 30 77" fill="none" xmlns="http://www.w3.org/2000/svg">
<path d="M12.6944 17.1374V18.2822C11.0285 19.4058 10.3748 20.593 10.3748 21.2926C10.3748 21.9074 10.6068 21.9286 10.902 22.7766C11.1972 23.6247 11.0496 25.1511 11.0285 25.6175C11.0074 26.0839 10.5013 26.9743 10.3537 27.4619C10.2061 27.9495 10.3959 28.3523 10.4802 28.6703C10.5646 28.9883 10.8387 30.2179 10.3326 31.8503C9.82654 33.4827 9.08849 34.3943 7.71784 36.0479C6.34718 37.7015 3.28957 40.3728 2.12978 41.56C0.97 42.7472 1.39174 44.0404 1.51826 44.9096C1.64479 45.7788 2.53044 47.92 2.67805 53.0292C2.99435 63.0993 0 67.615 0 72.4698C0 74.3354 1.28631 75.0986 1.89783 75.3318C2.50935 75.565 5.96762 76.3706 14.065 76.3706C22.1624 76.3706 23.4909 76.625 27.392 75.7346C31.2931 74.8442 29.7537 70.583 29.2476 67.9966C29.0368 66.9153 27.5818 58.3505 27.7926 51.4816C27.9824 44.6128 29.4163 39.334 29.6694 37.7863C29.9224 36.2387 29.1 35.3695 28.2776 34.7971C27.4553 34.2247 26.8016 33.4615 26.907 32.9103C27.0124 32.3591 27.2233 31.8503 27.1179 31.0235C27.0124 30.1967 25.7894 27.0379 24.1446 23.6247C22.4998 20.2114 20.2646 18.4518 20.2646 18.4518V17.1162H12.6733L12.6944 17.1374Z" fill="#38155E"></path>
<path d="M20.2857 15.9079C20.6231 15.9079 20.7918 15.6959 20.7918 15.4203C20.7918 15.1447 20.7285 10.9682 20.7074 10.5654C20.6863 10.1626 19.9694 9.61142 19.9694 9.01781C19.9694 8.42421 21.1713 8.12741 21.3822 8.08501C21.5931 8.04261 23.6596 7.8942 24.5874 7.4914C25.5153 7.0886 26.2322 5.98619 25.2622 4.75658C24.2922 3.52698 21.2557 0.516555 14.9928 0.134952C8.73002 -0.22545 4.8711 0.219753 3.92218 0.495355C2.7624 0.855757 3.03653 2.93337 3.07871 3.33617C3.12088 3.73898 3.2474 4.43858 3.88001 4.77778C4.51262 5.11699 5.98871 5.37139 6.38936 5.35019C6.79001 5.32899 6.8111 5.03218 6.8111 5.03218L7.04306 5.20179L6.9798 5.98619C6.9798 5.98619 6.70567 6.15579 6.4948 6.8766C6.28393 7.5974 6.03088 8.65741 5.16632 10.311C4.40718 11.7738 2.21414 14.021 1.77131 14.4238C1.32848 14.8267 1.41283 15.2083 1.64479 15.3779C1.87675 15.5475 2.2774 15.5475 2.88892 15.1235C4.06979 14.3178 5.88327 12.537 6.95871 11.2438C8.2661 9.69622 8.89871 8.19101 8.89871 8.19101L10.7755 8.27581C10.7755 8.27581 10.7755 8.69981 10.7755 9.08141C10.7755 9.46302 10.9652 9.63262 11.155 9.63262C11.3448 9.63262 12.1461 9.63262 12.1461 9.63262V15.2507C12.1461 15.9291 12.6522 15.8443 12.6522 15.8443H20.2435L20.2857 15.9079Z" fill="#38155E"></path>
</svg>